<svg xmlns="http://www.w3.org/2000/svg" width="1200" height="800" viewBox="0 0 1200 800" role="img" aria-labelledby="title desc">
  <title id="title">Contoh Baju TKA</title>
  <desc id="desc">Ilustrasi contoh seragam jurusan TKA</desc>
  <defs>
    <linearGradient id="bg" x1="0" y1="0" x2="1" y2="1">
      <stop offset="0%" stop-color="#dbeafe"/>
      <stop offset="100%" stop-color="#ecfeff"/>
    </linearGradient>
    <linearGradient id="shirt" x1="0" y1="0" x2="0" y2="1">
      <stop offset="0%" stop-color="#0f172a"/>
      <stop offset="100%" stop-color="#1e3a8a"/>
    </linearGradient>
  </defs>
  <rect width="1200" height="800" fill="url(#bg)"/>
  <circle cx="1030" cy="120" r="120" fill="#bae6fd" opacity="0.7"/>
  <circle cx="150" cy="680" r="150" fill="#bbf7d0" opacity="0.6"/>

  <g transform="translate(320,90)">
    <path d="M170 120 L250 70 L330 120 L420 105 L500 200 L430 245 L395 205 L395 560 L105 560 L105 205 L70 245 L0 200 L80 105 Z" fill="url(#shirt)"/>
    <rect x="226" y="150" width="48" height="410" fill="#f8fafc" opacity="0.95"/>
    <path d="M190 140 Q250 185 310 140 L290 95 L210 95 Z" fill="#f8fafc"/>
    <rect x="122" y="290" width="68" height="80" rx="8" fill="#1d4ed8"/>
    <rect x="309" y="290" width="68" height="80" rx="8" fill="#1d4ed8"/>
    <circle cx="250" cy="240" r="10" fill="#0ea5e9"/>
    <circle cx="250" cy="280" r="10" fill="#0ea5e9"/>
    <circle cx="250" cy="320" r="10" fill="#0ea5e9"/>
  </g>

  <rect x="80" y="70" width="410" height="120" rx="16" fill="#ffffff" opacity="0.88"/>
  <text x="120" y="122" font-family="Segoe UI, Arial, sans-serif" font-size="42" font-weight="700" fill="#0f172a">Contoh Baju TKA</text>
  <text x="120" y="165" font-family="Segoe UI, Arial, sans-serif" font-size="24" fill="#334155">Seragam praktik dan formal siswa jurusan TKA</text>
</svg>
